<?xml version="1.0" standalone="no"?>
<!DOCTYPE svg PUBLIC "-//W3C//DTD SVG 20010904//EN"
 "http://www.w3.org/TR/2001/REC-SVG-20010904/DTD/svg10.dtd">
<svg version="1.0" xmlns="http://www.w3.org/2000/svg"
 width="500.000000pt" height="500.000000pt" viewBox="0 0 500.000000 500.000000"
 preserveAspectRatio="xMidYMid meet">

<g transform="translate(0.000000,500.000000) scale(0.100000,-0.100000)"
fill="#000000" stroke="none">
<path d="M2355 4580 c-804 -52 -1525 -591 -1808 -1350 -149 -400 -171 -861
-61 -1270 199 -736 800 -1317 1539 -1488 304 -70 646 -71 945 -1 747 174 1344
750 1544 1489 91 335 91 745 0 1080 -76 279 -220 560 -402 783 -78 95 -258
267 -354 340 -403 302 -899 449 -1403 417z m1665 -1695 c0 -8 -18 -79 -41
-157 -23 -79 -44 -156 -49 -173 -8 -33 -107 -385 -119 -425 -7 -22 -14 -25
-60 -28 -47 -3 -52 -1 -47 15 17 57 167 589 203 721 l17 62 48 0 c36 0 48 -4
48 -15z m-2998 -82 c21 -20 38 -46 38 -58 0 -12 -41 -61 -105 -125 -58 -58
-105 -109 -105 -115 1 -5 48 -59 105 -120 58 -60 105 -117 105 -125 0 -17 -69
-90 -86 -90 -18 0 -314 315 -314 335 0 9 55 74 123 143 67 70 136 141 154 159
17 18 35 33 39 33 5 0 25 -17 46 -37z m3247 -140 c130 -136 149 -159 140 -176
-6 -10 -75 -85 -154 -165 l-144 -147 -40 40 c-23 21 -41 45 -41 53 0 8 45 62
100 119 56 58 100 109 98 114 -2 5 -47 56 -100 113 -54 58 -98 110 -98 117 0
14 69 89 81 89 4 0 75 -70 158 -157z m-2749 -8 l0 -45 -60 0 -60 0 0 -185 0
-185 -45 0 -45 0 0 185 0 185 -60 0 -60 0 0 45 0 45 165 0 165 0 0 -45z m220
-45 l0 -90 70 0 70 0 0 90 0 90 50 0 50 0 0 -230 0 -230 -50 0 -50 0 0 95 0
95 -70 0 -70 0 0 -95 0 -95 -45 0 -45 0 0 230 0 230 45 0 45 0 0 -90z m452
-64 c3 -147 4 -156 27 -180 32 -34 73 -42 110 -20 45 26 51 52 51 209 l0 145
45 0 45 0 0 -157 c0 -139 -2 -162 -21 -201 -32 -64 -86 -97 -164 -97 -71 0
-115 24 -156 83 -23 33 -24 45 -27 204 l-3 168 45 0 45 0 3 -154z m608 137
c27 -15 70 -78 70 -102 0 -6 -19 -11 -46 -11 -35 0 -50 5 -63 22 -20 24 -64
20 -75 -8 -11 -28 14 -54 79 -83 78 -36 109 -76 101 -134 -16 -136 -185 -172
-256 -55 -33 54 -27 68 25 68 33 0 47 -5 54 -19 21 -37 66 -36 81 3 11 29 -4
52 -37 61 -48 11 -112 54 -128 85 -30 58 -7 137 49 171 39 24 108 25 146 2z
m280 -73 l0 -90 70 0 70 0 0 90 0 90 50 0 50 0 0 -230 0 -230 -50 0 -50 0 0
95 0 95 -70 0 -70 0 0 -95 0 -95 -45 0 -45 0 0 230 0 230 45 0 45 0 0 -90z
m450 -140 l0 -230 -45 0 -45 0 0 230 0 230 45 0 45 0 0 -230z"/>
</g>
</svg>
